# xmcd
#
# Track frame offsets: 
#        150
#        10475
#        24440
#        34897
#        47975
#        58395
#        68837
#        81480
#        92117
#        103242
#        117362
#        130480
#
# Disc length: 1897 seconds
#
# Revision: 4
# Processed by: cddbd v1.5.2PL0 Copyright (c) Steve Scherf et al.
# Submitted via: ExactAudioCopy v0.95b3
#
DISCID=b207670c
DTITLE=Otis Redding - Love Man
DYEAR=1969
DGENRE=blues
TTITLE0=I'm a Changed Man
TTITLE1=(Your Love Has Lifted Me) Higher and Higher
TTITLE2=That's a Good Idea
TTITLE3=I'll Let Nothing Separate Us
TTITLE4=Direct Me
TTITLE5=Love Man
TTITLE6=Groovin' Time
TTITLE7=Your Feeling is Mine
TTITLE8=Got to Get Myself Together
TTITLE9=Free Me
TTITLE10=A Lover's Question
TTITLE11=Look at That Girl
EXTD=
EXTT0=
EXTT1=
EXTT2=
EXTT3=
EXTT4=
EXTT5=
EXTT6=
EXTT7=
EXTT8=
EXTT9=
EXTT10=
EXTT11=
PLAYORDER=
